<mxfile host="app.diagrams.net" agent="Mozilla/5.0 (Macintosh; Intel Mac OS X 10_15_7) AppleWebKit/537.36 (KHTML, like Gecko) Chrome/128.0.0.0 Safari/537.36" version="24.7.12">
  <diagram name="Page-1" id="-qnzxM91wdDdBcmD4h4P">
    <mxGraphModel dx="1360" dy="751" grid="1" gridSize="10" guides="1" tooltips="1" connect="1" arrows="1" fold="1" page="1" pageScale="1" pageWidth="850" pageHeight="1100" math="0" shadow="0">
      <root>
        <mxCell id="0" />
        <mxCell id="1" parent="0" />
        <mxCell id="pKbTBYh2b20ckRkrgN4m-19" value="" style="rounded=0;whiteSpace=wrap;html=1;fillColor=#dae8fc;strokeColor=#6c8ebf;fontSize=32;" vertex="1" parent="1">
          <mxGeometry x="520" y="40" width="480" height="320" as="geometry" />
        </mxCell>
        <mxCell id="pKbTBYh2b20ckRkrgN4m-16" value="" style="rounded=0;whiteSpace=wrap;html=1;fillColor=#dae8fc;strokeColor=#6c8ebf;fontSize=32;" vertex="1" parent="1">
          <mxGeometry x="40" y="40" width="320" height="320" as="geometry" />
        </mxCell>
        <mxCell id="pKbTBYh2b20ckRkrgN4m-13" value="c" style="rounded=0;whiteSpace=wrap;html=1;fontSize=32;" vertex="1" parent="1">
          <mxGeometry x="560" y="240" width="80" height="80" as="geometry" />
        </mxCell>
        <mxCell id="pKbTBYh2b20ckRkrgN4m-1" value="a" style="rounded=0;whiteSpace=wrap;html=1;fontSize=32;" vertex="1" parent="1">
          <mxGeometry x="80" y="160" width="80" height="80" as="geometry" />
        </mxCell>
        <mxCell id="pKbTBYh2b20ckRkrgN4m-2" value="b" style="rounded=0;whiteSpace=wrap;html=1;fontSize=32;" vertex="1" parent="1">
          <mxGeometry x="240" y="80" width="80" height="80" as="geometry" />
        </mxCell>
        <mxCell id="pKbTBYh2b20ckRkrgN4m-3" value="c" style="rounded=0;whiteSpace=wrap;html=1;fontSize=32;" vertex="1" parent="1">
          <mxGeometry x="240" y="240" width="80" height="80" as="geometry" />
        </mxCell>
        <mxCell id="pKbTBYh2b20ckRkrgN4m-4" value="" style="endArrow=classic;html=1;rounded=0;entryX=0;entryY=0.5;entryDx=0;entryDy=0;exitX=0.75;exitY=0.375;exitDx=0;exitDy=0;exitPerimeter=0;fontSize=32;endSize=20;" edge="1" parent="1" source="pKbTBYh2b20ckRkrgN4m-1" target="pKbTBYh2b20ckRkrgN4m-2">
          <mxGeometry width="50" height="50" relative="1" as="geometry">
            <mxPoint x="140" y="120" as="sourcePoint" />
            <mxPoint x="190" y="70" as="targetPoint" />
          </mxGeometry>
        </mxCell>
        <mxCell id="pKbTBYh2b20ckRkrgN4m-6" value="" style="endArrow=classic;html=1;rounded=0;entryX=0;entryY=0.5;entryDx=0;entryDy=0;exitX=0.75;exitY=0.625;exitDx=0;exitDy=0;exitPerimeter=0;fontSize=32;endSize=20;" edge="1" parent="1" source="pKbTBYh2b20ckRkrgN4m-1" target="pKbTBYh2b20ckRkrgN4m-3">
          <mxGeometry width="50" height="50" relative="1" as="geometry">
            <mxPoint x="140" y="130" as="sourcePoint" />
            <mxPoint x="240" y="130" as="targetPoint" />
          </mxGeometry>
        </mxCell>
        <mxCell id="pKbTBYh2b20ckRkrgN4m-8" value="a" style="rounded=0;whiteSpace=wrap;html=1;fontSize=32;" vertex="1" parent="1">
          <mxGeometry x="560" y="80" width="80" height="80" as="geometry" />
        </mxCell>
        <mxCell id="pKbTBYh2b20ckRkrgN4m-9" value="b" style="rounded=0;whiteSpace=wrap;html=1;fontSize=32;" vertex="1" parent="1">
          <mxGeometry x="720" y="80" width="80" height="80" as="geometry" />
        </mxCell>
        <mxCell id="pKbTBYh2b20ckRkrgN4m-10" value="d" style="rounded=0;whiteSpace=wrap;html=1;fontSize=32;" vertex="1" parent="1">
          <mxGeometry x="720" y="240" width="80" height="80" as="geometry" />
        </mxCell>
        <mxCell id="pKbTBYh2b20ckRkrgN4m-11" value="" style="endArrow=classic;html=1;rounded=0;entryX=0;entryY=0.5;entryDx=0;entryDy=0;fontSize=32;endSize=20;" edge="1" parent="1" target="pKbTBYh2b20ckRkrgN4m-9">
          <mxGeometry width="50" height="50" relative="1" as="geometry">
            <mxPoint x="610" y="280" as="sourcePoint" />
            <mxPoint x="670" y="70" as="targetPoint" />
          </mxGeometry>
        </mxCell>
        <mxCell id="pKbTBYh2b20ckRkrgN4m-12" value="" style="endArrow=classic;html=1;rounded=0;entryX=0;entryY=0.25;entryDx=0;entryDy=0;fontSize=32;endSize=20;exitX=0.625;exitY=0.25;exitDx=0;exitDy=0;exitPerimeter=0;" edge="1" parent="1" source="pKbTBYh2b20ckRkrgN4m-8" target="pKbTBYh2b20ckRkrgN4m-9">
          <mxGeometry width="50" height="50" relative="1" as="geometry">
            <mxPoint x="620" y="130" as="sourcePoint" />
            <mxPoint x="720" y="130" as="targetPoint" />
          </mxGeometry>
        </mxCell>
        <mxCell id="pKbTBYh2b20ckRkrgN4m-14" value="e" style="rounded=0;whiteSpace=wrap;html=1;fontSize=32;" vertex="1" parent="1">
          <mxGeometry x="880" y="240" width="80" height="80" as="geometry" />
        </mxCell>
        <mxCell id="pKbTBYh2b20ckRkrgN4m-15" value="" style="endArrow=classic;html=1;rounded=0;entryX=1;entryY=0.5;entryDx=0;entryDy=0;fontSize=32;endSize=20;" edge="1" parent="1" target="pKbTBYh2b20ckRkrgN4m-10">
          <mxGeometry width="50" height="50" relative="1" as="geometry">
            <mxPoint x="900" y="280" as="sourcePoint" />
            <mxPoint x="950" y="230" as="targetPoint" />
          </mxGeometry>
        </mxCell>
        <mxCell id="pKbTBYh2b20ckRkrgN4m-21" value="INCORRECT&lt;div&gt;Two outgoing arrows from&amp;nbsp;&lt;div&gt;the same box means&amp;nbsp;&lt;div style=&quot;font-size: 23px;&quot;&gt;one reference referring to&amp;nbsp;&lt;/div&gt;&lt;div style=&quot;font-size: 23px;&quot;&gt;two instances,&amp;nbsp;&lt;/div&gt;&lt;div style=&quot;font-size: 23px;&quot;&gt;which is not possible&lt;/div&gt;&lt;/div&gt;&lt;/div&gt;" style="text;html=1;align=center;verticalAlign=middle;resizable=0;points=[];autosize=1;strokeColor=#b85450;fillColor=#f8cecc;fontSize=23;" vertex="1" parent="1">
          <mxGeometry x="55" y="400" width="290" height="180" as="geometry" />
        </mxCell>
        <mxCell id="pKbTBYh2b20ckRkrgN4m-22" value="CORRECT&lt;div&gt;It&#39;s ok for one instance to be&amp;nbsp;&lt;div&gt;referred by one or more references&lt;/div&gt;&lt;/div&gt;" style="text;html=1;align=center;verticalAlign=middle;resizable=0;points=[];autosize=1;strokeColor=#82b366;fillColor=#d5e8d4;fontSize=23;" vertex="1" parent="1">
          <mxGeometry x="560" y="400" width="380" height="100" as="geometry" />
        </mxCell>
        <mxCell id="pKbTBYh2b20ckRkrgN4m-23" value="&lt;font style=&quot;font-size: 47px;&quot;&gt;OR&lt;/font&gt;" style="text;html=1;align=center;verticalAlign=middle;resizable=0;points=[];autosize=1;strokeColor=none;fillColor=none;" vertex="1" parent="1">
          <mxGeometry x="395" y="168" width="90" height="70" as="geometry" />
        </mxCell>
      </root>
    </mxGraphModel>
  </diagram>
</mxfile>
